<?xml version="1.0" encoding="UTF-8"?>
<svg id="Layer_2" data-name="Layer 2" xmlns="http://www.w3.org/2000/svg" viewBox="0 0 29.13 44.1">
  <defs>
    <style>
      .cls-1 {
        stroke: #000;
        stroke-miterlimit: 10;
      }

      .cls-1, .cls-2 {
        fill: #fff;
      }
    </style>
  </defs>
  <g id="Layer_1-2" data-name="Layer 1">
    <g>
      <polygon points="23.61 3.23 23.76 31.23 22.76 31.23 22.9 3.23 23.61 3.23 23.61 3.23"/>
      <g>
        <path class="cls-1" d="M.86,37.23C62.86-.38.86,9.91.86,9.91"/>
        <g>
          <path d="M1.12,37.65l-.52-.86C25,22,28.83,15.42,27.75,12.51c-1.88-5.07-19.99-3.24-26.81-2.1l-.16-.99c1.03-.17,25.37-4.13,27.92,2.74,1.79,4.82-7.23,13.16-27.57,25.49Z"/>
          <path d="M1.12,37.65c-.23-.1-.77-.44-1.12-.74,0,0,.34-.55.34-.55,4.65-2.84,9.25-5.76,13.68-8.92,4.31-3.16,8.86-6.42,12.04-10.74,4.79-6.36-4.45-6.93-8.83-7.07-5.57-.1-11.19.44-16.7,1.33-.07-.34-.18-1.13-.25-1.47,0,0-.08-.49-.08-.49,0,0,.49-.08.5-.08,6.04-.87,34.37-4.61,27.32,7.97-3.18,4.82-7.98,8.17-12.55,11.53-4.65,3.28-9.47,6.3-14.35,9.22h0ZM1.12,37.65c8.13-5.05,45.71-27.99,16.63-29.11-5.64-.12-11.32.47-16.89,1.37,0,0,.41-.58.41-.57,0,0,.16.99.16.99l-.58-.41c5.42-.85,10.89-1.36,16.4-1.26,29.53.89-8.16,23.5-16.4,28.58,0,0,.17-.69.17-.69-.03.26-.05.66.09,1.11h0Z"/>
        </g>
      </g>
      <g>
        <line class="cls-1" x1="6.36" y1=".73" x2="7.36" y2="43.73"/>
        <g>
          <rect x="6.36" y=".72" width="1" height="43.01" transform="translate(-.51 .17) rotate(-1.33)"/>
          <path d="M6.51,44.1c-.43-14.66-.84-29.4-1.17-44.1,0,0,.51.24.51.24,0,0,1.01.48,1.01.48,0,0,1,43,1,43-.32.18-.81.34-1.35.39h0ZM7.2,43.38c.13.02.31.18.65.34,0,0-1-43-1-43,0,0-.99.52-.99.52l.49-.51c.34,14.22.6,28.39.85,42.65h0Z"/>
        </g>
      </g>
      <g>
        <rect x="17.26" y="3.73" width="1" height="28"/>
        <path d="M18.26,32.02c-.4-.06-.75-.16-1-.3,0,0-.5-28-.5-28v-.76s.5.26.5.26c0,0,1,.5,1,.5,0,0,0,28,0,28v.3h0ZM18.26,31.3s0-27.57,0-27.57c0,0-1,.5-1,.5l.5-.5-.5,28c.52-.28.57-.37,1-.43h0Z"/>
      </g>
      <g>
        <line class="cls-2" x1="13.76" y1="30.73" x2="23.76" y2="30.73"/>
        <polygon points="13.76 30.37 23.76 30.23 23.76 31.23 13.76 31.08 13.76 30.37 13.76 30.37"/>
      </g>
      <g>
        <line class="cls-2" x1="14.26" y1="36.23" x2="14.26" y2="30.23"/>
        <polygon points="13.9 36.23 13.76 30.23 14.76 30.23 14.61 36.23 13.9 36.23 13.9 36.23"/>
      </g>
      <g>
        <line class="cls-2" x1="13.76" y1="35.73" x2="23.76" y2="35.73"/>
        <polygon points="13.76 35.37 23.76 35.23 23.76 36.23 13.76 36.08 13.76 35.37 13.76 35.37"/>
      </g>
      <g>
        <line class="cls-2" x1="23.26" y1="41.23" x2="23.26" y2="35.23"/>
        <polygon points="22.9 41.23 22.76 35.23 23.76 35.23 23.61 41.23 22.9 41.23 22.9 41.23"/>
      </g>
      <g>
        <line class="cls-2" x1="13.76" y1="39.73" x2="23.76" y2="39.73"/>
        <polygon points="13.76 39.37 23.76 39.23 23.76 40.23 13.76 40.08 13.76 39.37 13.76 39.37"/>
      </g>
    </g>
  </g>
</svg>