<?xml version="1.0" encoding="UTF-8"?>
<svg id="Layer_2" data-name="Layer 2" xmlns="http://www.w3.org/2000/svg" viewBox="0 0 14 20.63">
  <g id="Layer_1-2" data-name="Layer 1">
    <g>
      <path d="M0,0h6.45c5.87,0,7.55,1.91,7.55,4.32v6.22c0,2.57-1.64,4.46-7.36,4.46H0V0ZM6.55,14c4.76,0,5.45-1.69,5.45-3.67v-5.86c0-2.12-1.02-3.47-5.53-3.47H2v13h4.55Z"/>
      <path d="M3.63,17.11l1.2-.32c.2,1.6.66,2.85,2.43,2.85,1.29,0,2.04-.56,2.04-1.87,0-1.15-.68-1.87-1.77-2.8l-2.55-2.19c-.93-.78-1.32-1.6-1.32-2.61,0-1.79,1.3-2.78,3.27-2.78,2.09,0,3.27.9,3.46,3.28l-1.16.27c-.14-1.63-.64-2.59-2.3-2.59-1.2,0-2.04.54-2.04,1.71,0,.7.27,1.25,1.02,1.89l2.55,2.16c1.12.96,2.11,2.11,2.11,3.58,0,1.93-1.37,2.94-3.32,2.94-2.36,0-3.45-1.41-3.61-3.52Z"/>
    </g>
  </g>
</svg>